<?xml version="1.0" encoding="utf-8"?>
<!-- Generator: Adobe Illustrator 16.0.0, SVG Export Plug-In . SVG Version: 6.00 Build 0)  -->
<!DOCTYPE svg PUBLIC "-//W3C//DTD SVG 1.1//EN" "http://www.w3.org/Graphics/SVG/1.1/DTD/svg11.dtd">
<svg version="1.1" id="katman_1" xmlns="http://www.w3.org/2000/svg" xmlns:xlink="http://www.w3.org/1999/xlink" x="0px" y="0px"
	 width="38.992px" height="38.991px" viewBox="0 0 38.992 38.991" enable-background="new 0 0 38.992 38.991" xml:space="preserve">
<path fill-rule="evenodd" clip-rule="evenodd" fill="#EC6624" d="M1.449,38.991h36.097c0.797,0,1.447-0.652,1.447-1.449V25.928H0
	v11.613C0,38.338,0.652,38.989,1.449,38.991"/>
<path fill-rule="evenodd" clip-rule="evenodd" fill="#141718" d="M38.992,25.276V1.447C38.992,0.65,38.342,0,37.545,0H1.448
	C0.651,0-0.001,0.65-0.001,1.447v23.829"/>
<path fill-rule="evenodd" clip-rule="evenodd" fill="#FFFFFF" d="M29.013,10.529c-0.744,0.016-0.465,0.687-0.361,1.149l0.189-0.03
	c-0.021-0.173-0.061-0.259,0.051-0.402c0.283-0.362,0.756-0.444,1.182-0.45c0.117-0.001,0.125-0.185,0.002-0.193 M33.287,11.148
	c-0.541,0.004-0.539,0.844,0.004,0.844C33.84,11.992,33.832,11.136,33.287,11.148 M26.921,14.474
	c0.367-0.233,0.65-0.116,1.055-0.021c0.186,0.043,0.484-0.358-0.709-0.408c-0.559-0.026-1.789,1.281-2.141,1.703
	c-0.15,0.181,0.512,0.658,0.742,0.896c0.317,0.33,0.623,0.677,0.936,1.015c0.125,0.137,0.334-0.058,0.209-0.194l-1.58-1.634
	C25.875,15.334,26.404,14.837,26.921,14.474 M24.533,22.379c0.91,0.283,1.492,0.811,1.623,0.58c0.174-0.303-1.373-0.799-1.537-0.852
	c-1.936-0.604-1.711,0.01-1.488,0.02C23.609,22.149,24.076,22.237,24.533,22.379 M2.874,25.276l0.139-3.68l2.48-2.5
	c0.881-1-0.092-3.612-0.603-4.593c-0.723-1.385,0.755-0.773,0.244-2.7C4.823,10.65,5.821,8.82,6.179,9.3
	c0.474-0.507,6.199-3.423,7.412-4.22c0.762-0.502,1.867-0.701,2.777-0.584c2.235,0.287,3.945,0.863,6.1,1.279
	c0.379,0.071,0.47,0.059,0.857-0.142c0.713-0.371,1.119-0.237,1.889-0.257c0.459-0.012,0.961-0.008,1.328,0.091
	c0.199,0.056,4.709,2.772,5.293,3.133c0.252,0.156,0.041,0.363,0.111,0.453c2.022,1.569,0.865,0.707,2.168,1.754
	c0.235,0.19,0.144,0.494,0.168,0.759c0,0.014,0.115,0.049,0.254,0.123c0.621,0.325,0.813,0.668,1.316,1.293
	c0.952,1.186,1.118,1.012,0.557,1.721c-0.428,0.541-0.301,0.254-1.723,0.606c-0.279,0.07-1.435,0.589-1.625,0.447
	c-0.064-0.048-0.609-0.466-2.785-1.341c-0.143-0.057-1.1,0.22-1.791-0.079c-0.55,1.208-0.955,2.435-1.275,3.733l2.096,2.594
	c0.173,0.221,0.012,0.631,0.045,0.895c0.24,1.932,1.031,0.855-1.791,2.287c-0.188,0.1-0.492-0.461-1.072-0.861
	c-0.006,0.74,0.064,1.566-0.057,2.291h-3.264c-0.344-1.109-0.568-2.266-0.447-3.43c-0.092,0.006-0.25,0.063-0.284-0.053
	c-0.257-0.414-0.587-1.02-0.917-1.65c-0.5-0.956-0.996-1.962-1.233-2.446c-0.926,0.719-0.127,0.453-2.41,0.58
	c-1.584,0.086-1.441,0.231-2.395-0.66c0.098,3.327-3.029,3.999,0.258,6.764c0.352,0.297-0.26,0.662-0.433,0.895H9.974
	c-0.145-0.318-0.553-1.125-0.532-1.271l0.68-3.428l-0.951-1.034c0.236,0.508,0.685,1.204,0.515,1.442
	c-0.63,0.877-1.796,2.135-2.738,2.664c-0.676,0.375-0.97,0.875-1.076,1.627H2.874z"/>
<path fill-rule="evenodd" clip-rule="evenodd" fill="#FFFFFF" d="M1.546,32.942c0-0.906,0.069-1.572,0.199-1.994
	c0.133-0.422,0.364-0.766,0.696-1.035c0.33-0.27,0.773-0.469,1.324-0.605c0.559-0.131,1.244-0.199,2.066-0.199h2.791v1.236H5.679
	c-0.797,0-1.373,0.137-1.738,0.412c-0.176,0.135-0.315,0.313-0.41,0.533c-0.1,0.223-0.147,0.482-0.147,0.779l5.238,0.004v1.227
	H3.384v2.906H1.546 M11.443,36.206H9.67v-5.209h1.773V36.206z M14.601,29.108v1.889h1.451c0.637,0,1.147,0.063,1.537,0.186
	c0.389,0.125,0.723,0.33,0.998,0.615c0.231,0.236,0.403,0.5,0.52,0.789c0.115,0.293,0.174,0.609,0.174,0.949
	c0,0.834-0.274,1.486-0.821,1.959c-0.547,0.475-1.312,0.711-2.297,0.711h-3.25v-7.098H14.601z M15.632,32.124h-1.031v2.967h1.16
	c0.639,0,1.092-0.109,1.354-0.332c0.261-0.219,0.394-0.592,0.394-1.121c0-0.539-0.144-0.928-0.433-1.164
	C16.79,32.239,16.306,32.124,15.632,32.124 M23.162,36.206c-1.055,0-1.855-0.219-2.4-0.66c-0.545-0.438-0.816-1.086-0.816-1.943
	c0-0.852,0.271-1.502,0.82-1.941c0.547-0.443,1.344-0.664,2.396-0.664h2.463v1.088H23.39c-0.611,0-1.023,0.07-1.236,0.211
	c-0.111,0.074-0.193,0.172-0.252,0.301c-0.057,0.125-0.086,0.281-0.086,0.467h3.809v1.086h-3.809c0,0.367,0.105,0.623,0.314,0.768
	c0.197,0.137,0.613,0.203,1.25,0.203h2.244v1.086H23.162z M26.705,30.997h2.838c0.662,0,1.127,0.098,1.395,0.293s0.4,0.535,0.4,1.02
	v0.869h-1.611v-0.67c0-0.207-0.045-0.342-0.137-0.408c-0.086-0.07-0.289-0.105-0.604-0.105l-0.594,0.002v4.209h-1.688V30.997z
	 M34.145,36.206h-1.76v-7.1h1.76V36.206z M37.365,36.206h-1.771v-5.209h1.771V36.206z M10.554,28.038
	c0.723,0,1.309,0.586,1.309,1.307s-0.586,1.305-1.309,1.305c-0.719,0-1.305-0.584-1.305-1.305S9.835,28.038,10.554,28.038
	 M36.43,28.038c0.722,0,1.306,0.586,1.306,1.307s-0.584,1.305-1.306,1.305c-0.721,0-1.306-0.584-1.306-1.305
	S35.709,28.038,36.43,28.038"/>
<rect x="-0.001" y="25.276" fill="#FFFFFF" width="38.993" height="0.654"/>
<path fill-rule="evenodd" clip-rule="evenodd" fill="#FFFFFF" d="M35.795,2.392c0.26,0,0.512,0.069,0.76,0.202
	c0.246,0.134,0.438,0.326,0.576,0.576c0.139,0.25,0.207,0.512,0.207,0.783c0,0.268-0.068,0.524-0.203,0.772
	c-0.138,0.249-0.328,0.44-0.572,0.577c-0.243,0.137-0.5,0.207-0.768,0.207c-0.267,0-0.522-0.07-0.767-0.207
	c-0.246-0.137-0.437-0.328-0.574-0.577C34.32,4.478,34.25,4.221,34.25,3.953c0-0.271,0.07-0.533,0.207-0.783
	c0.14-0.25,0.332-0.442,0.578-0.576C35.283,2.461,35.535,2.392,35.795,2.392 M35.795,2.65c-0.218,0-0.429,0.057-0.634,0.168
	c-0.207,0.113-0.366,0.273-0.481,0.482c-0.114,0.209-0.174,0.425-0.174,0.652c0,0.223,0.057,0.438,0.172,0.645
	c0.112,0.205,0.272,0.365,0.478,0.48s0.418,0.174,0.64,0.174c0.223,0,0.437-0.059,0.641-0.174c0.205-0.115,0.363-0.275,0.476-0.48
	c0.113-0.206,0.17-0.422,0.17-0.645c0-0.228-0.057-0.443-0.174-0.652c-0.114-0.209-0.274-0.369-0.479-0.482
	C36.221,2.707,36.01,2.65,35.795,2.65 M35.117,4.813V3.137h0.574c0.194,0,0.336,0.016,0.424,0.047l0.207,0.16L36.4,3.592
	c0,0.121-0.043,0.229-0.132,0.318c-0.086,0.092-0.2,0.143-0.344,0.154l0.142,0.088c0.067,0.066,0.147,0.176,0.245,0.334l0.203,0.326
	h-0.328l-0.149-0.264c-0.114-0.207-0.207-0.338-0.278-0.391c-0.049-0.037-0.121-0.058-0.215-0.058h-0.156v0.712H35.117z
	 M35.387,3.871h0.324c0.155,0,0.262-0.025,0.319-0.072l0.084-0.186L36.074,3.48l-0.114-0.089c-0.048-0.019-0.136-0.028-0.269-0.028
	h-0.304V3.871z"/>
</svg>
